Coordinates
nRows=17
nColumns=24

# SIMM Motion File Header:
name Coordinates
datacolumns 24
datarows 17
otherdata 1
range 0.53000000000000003000 0.54600000000000004000
endheader
time	pelvis_tx	pelvis_ty	pelvis_tz	pelvis_tilt	pelvis_list	pelvis_rotation	hip_flexion_r	hip_adduction_r	hip_rotation_r	knee_angle_r	ankle_angle_r	subtalar_angle_r	mtp_angle_r	hip_flexion_l	hip_adduction_l	hip_rotation_l	knee_angle_l	ankle_angle_l	subtalar_angle_l	mtp_angle_l	lumbar_extension	lumbar_bending	lumbar_rotation
      0.53000000000000003000	      0.58746650759975538000	      1.02480449644348330000	     -0.02071552341844169100	      4.63337034721363580000	      1.63258755804923790000	     -0.04309233128331862300	     18.16813630438943900000	     -4.89807721963702660000	     -8.18613930822609960000	     -9.04806829626691740000	      1.19065386466012920000	     -0.00080561798590682721	     -0.00031359885832226672	    -17.11316703304626300000	      4.83503547066725310000	      0.94588681750245707000	     -1.17704117465883410000	      8.39963506768968140000	     -0.00364663613064783500	      0.02450943472103453100	    -16.86824040708901500000	     -3.18173824977450260000	     -6.11280257236560500000
      0.53100000000000003000	      0.58741509378739698000	      1.02454174000531430000	     -0.02066658834959335000	      4.62603519383316540000	      1.66746185699850980000	     -0.03640828911010076500	     18.13987789111252300000	     -4.91123193126693640000	     -8.12262548877357030000	     -8.72862927650474060000	      1.20011462986665180000	     -0.00060264440408143395	     -0.00592038130933370070	    -17.18582823011707500000	      4.86670905805850930000	      0.96791382884704602000	     -1.15796468978885270000	      8.43852223118949500000	      0.00348097530685301250	      0.01491630428903281700	    -16.86243852920405200000	     -3.20623056237706770000	     -6.11824397504948350000
      0.53200000000000003000	      0.58736409721656591000	      1.02427767997169530000	     -0.02061676798724436700	      4.61828408462048490000	      1.70187655315340240000	     -0.02965433674590786000	     18.11270793778278700000	     -4.92409204304345670000	     -8.05951131974125620000	     -8.41271172857423370000	      1.21017571950090710000	      0.00058607682509473217	     -0.01772048903916148200	    -17.25754646622900900000	      4.89771815031418180000	      0.98974416251843411000	     -1.14019900548025980000	      8.48865732996895520000	      0.01425990303726099500	     -0.01160665818414036700	    -16.85619876592619400000	     -3.23021741595238780000	     -6.12357173652577380000
      0.53300000000000003000	      0.58731366545826569000	      1.02401184807660410000	     -0.02056574926264138600	      4.60996657574216060000	      1.73566811645770660000	     -0.02280581338512902400	     18.08701692289093500000	     -4.93655297914160230000	     -7.99693950541198630000	     -8.10156872982665810000	      1.22104999247370500000	      0.00312006235221297130	     -0.03791329561900146800	    -17.32798324877548900000	      4.92782799201581230000	      1.01131658540890990000	     -1.12421249907190180000	      8.55409071040239510000	      0.02993166695592376300	     -0.06114156647007494600	    -16.84936251593740100000	     -3.25351884867341430000	     -6.12874520677683950000
      0.53400000000000003000	      0.58726323369996558000	      1.02374601618151260000	     -0.02051473053803840700	      4.60164906686383630000	      1.76945967976201060000	     -0.01595729002435019100	     18.06132590799908800000	     -4.94901391523974790000	     -7.93436769108271630000	     -7.79042573107908170000	      1.23192426544650300000	      0.00565404787933121090	     -0.05810610219884145000	    -17.39842003132196500000	      4.95793783371744200000	      1.03288900829938580000	     -1.10822599266354380000	      8.61952409083583500000	      0.04560343087458653500	     -0.11067647475600952000	    -16.84252626594860700000	     -3.27682028139444090000	     -6.13391867702790530000
      0.53500000000000003000	      0.58721401027738318000	      1.02347716916407050000	     -0.02046156210055713100	      4.59224389766464560000	      1.80221932769191210000	     -0.00904377947947627640	     18.03865681747604600000	     -4.96094609438239860000	     -7.87291230586016330000	     -7.48916350055145320000	      1.24366131139741620000	      0.01187571856861744300	     -0.09189495642175267400	    -17.46660710429355800000	      4.98684498674915750000	      1.05594862714683550000	     -1.09443930026175650000	      8.69805600095392780000	      0.04898213443697580600	     -0.17812261715106920000	    -16.83454030082940300000	     -3.29897724688796060000	     -6.13872430681586940000
      0.53600000000000003000	      0.58716488860952554000	      1.02320806824124430000	     -0.02040821263437760400	      4.58274713589325080000	      1.83489207736725210000	     -0.00212479632220914350	     18.01624220513947000000	     -4.97283374656318870000	     -7.81155093584769670000	     -7.18873333584369250000	      1.25547101201337300000	      0.01840793158716102400	     -0.12682874252417692000	    -17.53460472778103700000	      5.01565086059772550000	      1.07913348371828580000	     -1.08083785560631740000	      8.77769094664562390000	      0.05132563151376205700	     -0.24707707604157808000	    -16.82645751746274200000	     -3.32103783606328620000	     -6.14349896052285520000
      0.53700000000000003000	      0.58711659584894704000	      1.02293891042197480000	     -0.02035365731738895300	      4.57328154078449960000	      1.86725381798096550000	      0.00463777003506480810	     17.99461312039852200000	     -4.98459107604059250000	     -7.75049889459661580000	     -6.89286244558625950000	      1.26697972580394060000	      0.02580760732721009200	     -0.16488134204175720000	    -17.60255369306869300000	      5.04414534964648360000	      1.10302652252036260000	     -1.06651172114377800000	      8.84220339285355730000	      0.03974455103082234800	     -0.29352404332575821000	    -16.81842511503898100000	     -3.34279065272465110000	     -6.14798107081458680000
      0.53800000000000003000	      0.58706943688153501000	      1.02266967477880380000	     -0.02029745261760270600	      4.56385857595540840000	      1.89919015522615280000	      0.01118638689111506200	     17.97405849337112500000	     -4.99617014795621990000	     -7.68986995837143720000	     -6.60322780677133190000	      1.27807674480744100000	      0.03439381300908344500	     -0.20719990643402805000	    -17.67043610286114600000	      5.07221392138577710000	      1.12788822475900590000	     -1.05119434390694780000	      8.88603103268552450000	      0.00911720170857669740	     -0.30918488914996367000	    -16.81046162450705900000	     -3.36412249302123230000	     -6.15206303535610210000
      0.53900000000000003000	      0.58702227791412298000	      1.02240043913563290000	     -0.02024124791781645900	      4.55443561112631820000	      1.93112649247134010000	      0.01773500374716531500	     17.95350386634372700000	     -5.00774921987184830000	     -7.62924102214625940000	     -6.31359316795640520000	      1.28917376381094150000	      0.04298001869095680700	     -0.24951847082629891000	    -17.73831851265359900000	      5.10028249312507050000	      1.15274992699764930000	     -1.03587696667011750000	      8.92985867251749350000	     -0.02151014761366895300	     -0.32484573497416919000	    -16.80249813397514200000	     -3.38545433331781400000	     -6.15614499989761650000
      0.54000000000000004000	      0.58697674044418480000	      1.02213281802714890000	     -0.02018280665354673500	      4.54580578985864210000	      1.96261278421342090000	      0.02390625233947413200	     17.93323293869090700000	     -5.01905473032143150000	     -7.56885096186510880000	     -6.03083353424107130000	      1.29887312254152240000	      0.05071145170464703300	     -0.29178510022502491000	    -17.80731828516303100000	      5.12773969242442100000	      1.17747075129574390000	     -1.01794878131362080000	      8.93290646663055730000	     -0.07068811283445805600	     -0.28192576203753789000	    -16.79542600268089100000	     -3.40639195130997720000	     -6.15966883401826860000
      0.54100000000000004000	      0.58693231578771321000	      1.02186569387898580000	     -0.02012335319933105900	      4.53753814564855510000	      1.99296613670198730000	      0.03066455732516287400	     17.91356168413326000000	     -5.02961009195238250000	     -7.50962272766723160000	     -5.75516084137349180000	      1.30728441954396860000	      0.05544969621408135000	     -0.33620948933790046000	    -17.87573167624699300000	      5.15365522153693330000	      1.20330966286507460000	     -1.00198031316922530000	      8.93653002087345170000	     -0.13096713585440109000	     -0.23531020796579405000	    -16.78884020614175700000	     -3.42595160127429170000	     -6.16335071495897240000
      0.54200000000000004000	      0.58688795621565004000	      1.02159859379744390000	     -0.02006384482195415100	      4.52929019383382240000	      2.02324648648165570000	      0.03746411796528840300	     17.89392881508155900000	     -5.04011697944784220000	     -7.45047060748182500000	     -5.47992201465693100000	      1.31561769228898600000	      0.05999319355348672200	     -0.38077802066365712000	    -17.94409970231392400000	      5.17947140490797060000	      1.22922390448059420000	     -0.98615715002722504000	      8.94042089892001000000	     -0.19188208544459323000	     -0.18877715703607412000	    -16.78228182779081500000	     -3.44542159988426500000	     -6.16704626572235970000
      0.54300000000000004000	      0.58684463608176807000	      1.02133178946371790000	     -0.02000363388427712700	      4.52132179082932060000	      2.05189988477932150000	      0.04539252413673863800	     17.87497432464427000000	     -5.04948584526908210000	     -7.39302329856429720000	     -5.21255093947002020000	      1.32286758836656100000	      0.05975904622858867200	     -0.42730613389615979000	    -18.01108448933768000000	      5.20283080047620050000	      1.25540520309676110000	     -0.97481654646822613000	      8.96610231888030280000	     -0.24893696735881438000	     -0.16798544427446882000	    -16.77615501774397400000	     -3.46286592396847890000	     -6.17126732784726610000
      0.54400000000000004000	      0.58680166242727982000	      1.02106508371259740000	     -0.01994318875983339500	      4.51344657076156160000	      2.08001096591632080000	      0.05369721215196326900	     17.85624596041178700000	     -5.05847537053224800000	     -7.33614426006939540000	     -4.94780244812632300000	      1.32975635888832230000	      0.05793235068225826400	     -0.47448744109757701000	    -18.07760819668038000000	      5.22537126677682910000	      1.28167552071314410000	     -0.96497012943689253000	      8.99904725281183280000	     -0.30470516004771353000	     -0.15577417756889028000	    -16.77017206379850100000	     -3.47963502321077420000	     -6.17566356042601150000
      0.54500000000000004000	      0.58675916368311598000	      1.02079877495689990000	     -0.01988221674835560400	      4.50575274111896280000	      2.10763590996508250000	      0.06227313993813140400	     17.83771912482178800000	     -5.06711928952185350000	     -7.27973346928437510000	     -4.68600546818637830000	      1.33659041339010850000	      0.05459088783535681600	     -0.52168578882624661000	    -18.14386515841524900000	      5.24703835517220710000	      1.30712857395277000000	     -0.95619344471429535000	      9.03415915639310360000	     -0.35433838595494327000	     -0.14572048625929754000	    -16.76442076804986300000	     -3.49582912988640260000	     -6.18015072942404230000
      0.54600000000000004000	      0.58671808966992556000	      1.02053365718747170000	     -0.01981966407577565400	      4.49860308275184110000	      2.13380244274913580000	      0.07166278703712773700	     17.81979687515923400000	     -5.07472638969077750000	     -7.22472742162899450000	     -4.43306302245766390000	      1.34326031983196900000	      0.04670512308675501400	     -0.56893525813667323000	    -18.20932188332662300000	      5.26608530985183880000	      1.33012983406213240000	     -0.95062595691789864000	      9.07577196892358450000	     -0.38556671151721622000	     -0.14213952113764405000	    -16.75936444689173400000	     -3.51029825886203460000	     -6.18491070767992750000
